<mxfile host="Electron" modified="2023-09-15T07:11:51.944Z" agent="Mozilla/5.0 (Windows NT 10.0; Win64; x64) AppleWebKit/537.36 (KHTML, like Gecko) draw.io/21.1.2 Chrome/106.0.5249.199 Electron/21.4.3 Safari/537.36" etag="rW0cNbIqzAFApk11lnm-" version="21.1.2" type="device">
  <diagram name="Page-1" id="e3a06f82-3646-2815-327d-82caf3d4e204">
    <mxGraphModel dx="650" dy="420" grid="1" gridSize="10" guides="1" tooltips="1" connect="1" arrows="1" fold="1" page="1" pageScale="1.5" pageWidth="1169" pageHeight="826" background="none" math="0" shadow="0">
      <root>
        <mxCell id="0" style=";html=1;" />
        <mxCell id="1" style=";html=1;" parent="0" />
        <mxCell id="PSWR5xE6oD8wzBKl0Q2b-35" value="" style="edgeStyle=orthogonalEdgeStyle;rounded=0;orthogonalLoop=1;jettySize=auto;html=1;" edge="1" parent="1" source="PSWR5xE6oD8wzBKl0Q2b-15" target="PSWR5xE6oD8wzBKl0Q2b-16">
          <mxGeometry relative="1" as="geometry" />
        </mxCell>
        <mxCell id="PSWR5xE6oD8wzBKl0Q2b-15" value="CDN" style="editableCssRules=.*;html=1;shape=image;verticalLabelPosition=bottom;labelBackgroundColor=#ffffff;verticalAlign=top;aspect=fixed;imageAspect=0;image=data:image/svg+xml,PHN2ZyB4bWxucz0iaHR0cDovL3d3dy53My5vcmcvMjAwMC9zdmciIHhtbG5zOnY9Imh0dHBzOi8vdmVjdGEuaW8vbmFubyIgd2lkdGg9IjIwIiBoZWlnaHQ9IjIwIiB2aWV3Qm94PSIwIDAgMjAgMjAiPiYjeGE7CTxzdHlsZSB0eXBlPSJ0ZXh0L2NzcyI+JiN4YTsJLnN0MHtmaWxsOiM0Mjg1ZjQ7fSYjeGE7CS5zdDF7ZmlsbDojNjY5ZGY2O30mI3hhOwkuc3Qye2ZpbGw6I2FlY2JmYTt9JiN4YTsJPC9zdHlsZT4mI3hhOwk8cGF0aCBjbGFzcz0ic3QxIiBkPSJNMTMuMTMgNS42M1YzLjIxTDEwIDB2Mi40MXptMy43NSA3LjVMMjAgMTBoLTIuNWwtMy4xMiAzLjEzem0tMTMuNzUgMEwwIDEwaDIuNWwzLjEzIDMuMTN6bTEwIDEuMjV2Mi40MUwxMCAyMHYtMi40MXoiIGZpbGwtcnVsZT0iZXZlbm9kZCIvPiYjeGE7CTxwYXRoIGNsYXNzPSJzdDIiIGQ9Ik02Ljg4IDUuNjNMMTAgMi40MVYwTDYuODggMy4yMXpNMTcuNSAxMEgyMGwtMy4xMi0zLjEyaC0yLjV6bS0xNSAwSDBsMy4xMy0zLjEyaDIuNXptNC4zOCA0LjM4TDEwIDE3LjU5VjIwbC0zLjEyLTMuMjF6bTAtNy41aDYuMjV2Ni4yNUg2Ljg4eiIgZmlsbC1ydWxlPSJldmVub2RkIi8+JiN4YTsJPHBhdGggY2xhc3M9InN0MSIgZD0iTTYuODggMTMuMTNsNi4yNS02LjI1djYuMjV6IiBmaWxsLXJ1bGU9ImV2ZW5vZGQiLz4mI3hhOwk8cGF0aCBjbGFzcz0ic3QwIiBkPSJNMTAgMTBsMy4xMy0zLjEydjYuMjV6IiBmaWxsLXJ1bGU9ImV2ZW5vZGQiLz4mI3hhOzwvc3ZnPg==;" vertex="1" parent="1">
          <mxGeometry x="790" y="600" width="50" height="50" as="geometry" />
        </mxCell>
        <mxCell id="PSWR5xE6oD8wzBKl0Q2b-36" value="" style="edgeStyle=orthogonalEdgeStyle;rounded=0;orthogonalLoop=1;jettySize=auto;html=1;" edge="1" parent="1" source="PSWR5xE6oD8wzBKl0Q2b-16" target="PSWR5xE6oD8wzBKl0Q2b-17">
          <mxGeometry relative="1" as="geometry" />
        </mxCell>
        <mxCell id="PSWR5xE6oD8wzBKl0Q2b-16" value="API Gateway" style="sketch=0;points=[[0,0,0],[0.25,0,0],[0.5,0,0],[0.75,0,0],[1,0,0],[0,1,0],[0.25,1,0],[0.5,1,0],[0.75,1,0],[1,1,0],[0,0.25,0],[0,0.5,0],[0,0.75,0],[1,0.25,0],[1,0.5,0],[1,0.75,0]];outlineConnect=0;fontColor=#232F3E;gradientColor=#FF4F8B;gradientDirection=north;fillColor=#BC1356;strokeColor=#ffffff;dashed=0;verticalLabelPosition=bottom;verticalAlign=top;align=center;html=1;fontSize=12;fontStyle=0;aspect=fixed;shape=mxgraph.aws4.resourceIcon;resIcon=mxgraph.aws4.api_gateway;" vertex="1" parent="1">
          <mxGeometry x="880" y="600" width="50" height="50" as="geometry" />
        </mxCell>
        <mxCell id="PSWR5xE6oD8wzBKl0Q2b-38" value="" style="edgeStyle=orthogonalEdgeStyle;rounded=0;orthogonalLoop=1;jettySize=auto;html=1;entryX=0.685;entryY=0.019;entryDx=0;entryDy=0;entryPerimeter=0;" edge="1" parent="1" source="PSWR5xE6oD8wzBKl0Q2b-17" target="PSWR5xE6oD8wzBKl0Q2b-57">
          <mxGeometry relative="1" as="geometry">
            <mxPoint x="1243.5974999999999" y="770" as="targetPoint" />
          </mxGeometry>
        </mxCell>
        <mxCell id="PSWR5xE6oD8wzBKl0Q2b-17" value="CRUD" style="outlineConnect=0;dashed=0;verticalLabelPosition=bottom;verticalAlign=top;align=center;html=1;shape=mxgraph.aws3.worker;fillColor=#D9A741;gradientColor=none;" vertex="1" parent="1">
          <mxGeometry x="990" y="600" width="50" height="50" as="geometry" />
        </mxCell>
        <mxCell id="PSWR5xE6oD8wzBKl0Q2b-39" value="" style="edgeStyle=orthogonalEdgeStyle;rounded=0;orthogonalLoop=1;jettySize=auto;html=1;entryX=0.237;entryY=0.014;entryDx=0;entryDy=0;entryPerimeter=0;" edge="1" parent="1" source="PSWR5xE6oD8wzBKl0Q2b-18" target="PSWR5xE6oD8wzBKl0Q2b-57">
          <mxGeometry relative="1" as="geometry">
            <mxPoint x="1214.5324999999998" y="770" as="targetPoint" />
          </mxGeometry>
        </mxCell>
        <mxCell id="PSWR5xE6oD8wzBKl0Q2b-18" value="Help" style="outlineConnect=0;dashed=0;verticalLabelPosition=bottom;verticalAlign=top;align=center;html=1;shape=mxgraph.aws3.worker;fillColor=#D9A741;gradientColor=none;" vertex="1" parent="1">
          <mxGeometry x="990" y="680" width="50" height="50" as="geometry" />
        </mxCell>
        <mxCell id="PSWR5xE6oD8wzBKl0Q2b-41" value="" style="edgeStyle=orthogonalEdgeStyle;rounded=0;orthogonalLoop=1;jettySize=auto;html=1;entryX=-0.008;entryY=0.462;entryDx=0;entryDy=0;entryPerimeter=0;" edge="1" parent="1" source="PSWR5xE6oD8wzBKl0Q2b-25" target="PSWR5xE6oD8wzBKl0Q2b-57">
          <mxGeometry relative="1" as="geometry">
            <mxPoint x="1200" y="795" as="targetPoint" />
          </mxGeometry>
        </mxCell>
        <mxCell id="PSWR5xE6oD8wzBKl0Q2b-52" value="" style="edgeStyle=orthogonalEdgeStyle;rounded=0;orthogonalLoop=1;jettySize=auto;html=1;" edge="1" parent="1" source="PSWR5xE6oD8wzBKl0Q2b-25" target="PSWR5xE6oD8wzBKl0Q2b-29">
          <mxGeometry relative="1" as="geometry" />
        </mxCell>
        <mxCell id="PSWR5xE6oD8wzBKl0Q2b-25" value="Tracker" style="outlineConnect=0;dashed=0;verticalLabelPosition=bottom;verticalAlign=top;align=center;html=1;shape=mxgraph.aws3.worker;fillColor=#D9A741;gradientColor=none;" vertex="1" parent="1">
          <mxGeometry x="990" y="770" width="50" height="50" as="geometry" />
        </mxCell>
        <mxCell id="PSWR5xE6oD8wzBKl0Q2b-43" value="" style="edgeStyle=orthogonalEdgeStyle;rounded=0;orthogonalLoop=1;jettySize=auto;html=1;entryX=-0.025;entryY=0.738;entryDx=0;entryDy=0;entryPerimeter=0;" edge="1" parent="1" source="PSWR5xE6oD8wzBKl0Q2b-26" target="PSWR5xE6oD8wzBKl0Q2b-57">
          <mxGeometry relative="1" as="geometry">
            <mxPoint x="1199.76748" y="804.45" as="targetPoint" />
          </mxGeometry>
        </mxCell>
        <mxCell id="PSWR5xE6oD8wzBKl0Q2b-26" value="Mail Poller Filter" style="outlineConnect=0;dashed=0;verticalLabelPosition=bottom;verticalAlign=top;align=center;html=1;shape=mxgraph.aws3.worker;fillColor=#D9A741;gradientColor=none;" vertex="1" parent="1">
          <mxGeometry x="990" y="860" width="50" height="50" as="geometry" />
        </mxCell>
        <mxCell id="PSWR5xE6oD8wzBKl0Q2b-45" value="" style="edgeStyle=orthogonalEdgeStyle;rounded=0;orthogonalLoop=1;jettySize=auto;html=1;entryX=0.267;entryY=1.005;entryDx=0;entryDy=0;entryPerimeter=0;" edge="1" parent="1" source="PSWR5xE6oD8wzBKl0Q2b-27" target="PSWR5xE6oD8wzBKl0Q2b-57">
          <mxGeometry relative="1" as="geometry">
            <mxPoint x="1214.5324999999998" y="820" as="targetPoint" />
          </mxGeometry>
        </mxCell>
        <mxCell id="PSWR5xE6oD8wzBKl0Q2b-27" value="Sharer" style="outlineConnect=0;dashed=0;verticalLabelPosition=bottom;verticalAlign=top;align=center;html=1;shape=mxgraph.aws3.worker;fillColor=#D9A741;gradientColor=none;" vertex="1" parent="1">
          <mxGeometry x="990" y="950" width="50" height="50" as="geometry" />
        </mxCell>
        <mxCell id="PSWR5xE6oD8wzBKl0Q2b-47" value="" style="edgeStyle=orthogonalEdgeStyle;rounded=0;orthogonalLoop=1;jettySize=auto;html=1;entryX=0.821;entryY=1.015;entryDx=0;entryDy=0;entryPerimeter=0;" edge="1" parent="1" source="PSWR5xE6oD8wzBKl0Q2b-28" target="PSWR5xE6oD8wzBKl0Q2b-57">
          <mxGeometry relative="1" as="geometry">
            <mxPoint x="1243.5974999999999" y="820" as="targetPoint" />
          </mxGeometry>
        </mxCell>
        <mxCell id="PSWR5xE6oD8wzBKl0Q2b-28" value="Notifier" style="outlineConnect=0;dashed=0;verticalLabelPosition=bottom;verticalAlign=top;align=center;html=1;shape=mxgraph.aws3.worker;fillColor=#D9A741;gradientColor=none;" vertex="1" parent="1">
          <mxGeometry x="990" y="1030" width="50" height="50" as="geometry" />
        </mxCell>
        <mxCell id="PSWR5xE6oD8wzBKl0Q2b-63" value="" style="edgeStyle=orthogonalEdgeStyle;rounded=0;orthogonalLoop=1;jettySize=auto;html=1;" edge="1" parent="1" source="PSWR5xE6oD8wzBKl0Q2b-29" target="PSWR5xE6oD8wzBKl0Q2b-60">
          <mxGeometry relative="1" as="geometry">
            <mxPoint x="800" y="795" as="targetPoint" />
          </mxGeometry>
        </mxCell>
        <mxCell id="PSWR5xE6oD8wzBKl0Q2b-65" value="" style="edgeStyle=orthogonalEdgeStyle;rounded=0;orthogonalLoop=1;jettySize=auto;html=1;entryX=1.071;entryY=0.545;entryDx=0;entryDy=0;entryPerimeter=0;" edge="1" parent="1" source="PSWR5xE6oD8wzBKl0Q2b-29" target="PSWR5xE6oD8wzBKl0Q2b-61">
          <mxGeometry relative="1" as="geometry">
            <mxPoint x="905" y="900" as="targetPoint" />
            <Array as="points">
              <mxPoint x="760" y="795" />
              <mxPoint x="760" y="861" />
            </Array>
          </mxGeometry>
        </mxCell>
        <mxCell id="PSWR5xE6oD8wzBKl0Q2b-29" value="Agency Collector" style="outlineConnect=0;dashed=0;verticalLabelPosition=bottom;verticalAlign=top;align=center;html=1;shape=mxgraph.aws3.worker;fillColor=#D9A741;gradientColor=none;" vertex="1" parent="1">
          <mxGeometry x="880" y="770" width="50" height="50" as="geometry" />
        </mxCell>
        <mxCell id="PSWR5xE6oD8wzBKl0Q2b-49" value="" style="edgeStyle=orthogonalEdgeStyle;rounded=0;orthogonalLoop=1;jettySize=auto;html=1;entryX=0;entryY=0.5;entryDx=0;entryDy=0;entryPerimeter=0;exitX=1.058;exitY=0.542;exitDx=0;exitDy=0;exitPerimeter=0;" edge="1" parent="1" source="PSWR5xE6oD8wzBKl0Q2b-57" target="PSWR5xE6oD8wzBKl0Q2b-34">
          <mxGeometry relative="1" as="geometry">
            <mxPoint x="1258.13" y="795" as="sourcePoint" />
            <mxPoint x="1548.1100000000001" y="831" as="targetPoint" />
          </mxGeometry>
        </mxCell>
        <mxCell id="PSWR5xE6oD8wzBKl0Q2b-31" value="Analytics" style="sketch=0;points=[[0,0,0],[0.25,0,0],[0.5,0,0],[0.75,0,0],[1,0,0],[0,1,0],[0.25,1,0],[0.5,1,0],[0.75,1,0],[1,1,0],[0,0.25,0],[0,0.5,0],[0,0.75,0],[1,0.25,0],[1,0.5,0],[1,0.75,0]];outlineConnect=0;fontColor=#232F3E;gradientColor=#60A337;gradientDirection=north;fillColor=#277116;strokeColor=#ffffff;dashed=0;verticalLabelPosition=bottom;verticalAlign=top;align=center;html=1;fontSize=12;fontStyle=0;aspect=fixed;shape=mxgraph.aws4.resourceIcon;resIcon=mxgraph.aws4.iot_analytics;" vertex="1" parent="1">
          <mxGeometry x="1660.0000000000002" y="777" width="50" height="50" as="geometry" />
        </mxCell>
        <mxCell id="PSWR5xE6oD8wzBKl0Q2b-32" value="Reports" style="verticalLabelPosition=bottom;sketch=0;aspect=fixed;html=1;verticalAlign=top;strokeColor=none;align=center;outlineConnect=0;shape=mxgraph.citrix.reporting;" vertex="1" parent="1">
          <mxGeometry x="1661.8700000000001" y="858" width="48.13" height="54" as="geometry" />
        </mxCell>
        <mxCell id="PSWR5xE6oD8wzBKl0Q2b-50" value="" style="edgeStyle=orthogonalEdgeStyle;rounded=0;orthogonalLoop=1;jettySize=auto;html=1;entryX=0;entryY=0.5;entryDx=0;entryDy=0;entryPerimeter=0;" edge="1" parent="1" source="PSWR5xE6oD8wzBKl0Q2b-34" target="PSWR5xE6oD8wzBKl0Q2b-31">
          <mxGeometry relative="1" as="geometry" />
        </mxCell>
        <mxCell id="PSWR5xE6oD8wzBKl0Q2b-51" value="" style="edgeStyle=orthogonalEdgeStyle;rounded=0;orthogonalLoop=1;jettySize=auto;html=1;" edge="1" parent="1" source="PSWR5xE6oD8wzBKl0Q2b-34" target="PSWR5xE6oD8wzBKl0Q2b-32">
          <mxGeometry relative="1" as="geometry" />
        </mxCell>
        <mxCell id="PSWR5xE6oD8wzBKl0Q2b-34" value="Analytics DB" style="sketch=0;points=[[0,0,0],[0.25,0,0],[0.5,0,0],[0.75,0,0],[1,0,0],[0,1,0],[0.25,1,0],[0.5,1,0],[0.75,1,0],[1,1,0],[0,0.25,0],[0,0.5,0],[0,0.75,0],[1,0.25,0],[1,0.5,0],[1,0.75,0]];outlineConnect=0;fontColor=#232F3E;gradientColor=#945DF2;gradientDirection=north;fillColor=#5A30B5;strokeColor=#ffffff;dashed=0;verticalLabelPosition=bottom;verticalAlign=top;align=center;html=1;fontSize=12;fontStyle=0;aspect=fixed;shape=mxgraph.aws4.resourceIcon;resIcon=mxgraph.aws4.sql_workbench;" vertex="1" parent="1">
          <mxGeometry x="1520.0000000000002" y="805.5" width="78" height="78" as="geometry" />
        </mxCell>
        <mxCell id="PSWR5xE6oD8wzBKl0Q2b-57" value="" style="html=1;verticalLabelPosition=bottom;align=center;labelBackgroundColor=#ffffff;verticalAlign=top;strokeWidth=2;strokeColor=#0080F0;shadow=0;dashed=0;shape=mxgraph.ios7.icons.data;gradientColor=#33FFFF;container=1;" vertex="1" collapsed="1" parent="1">
          <mxGeometry x="1230" y="822" width="50" height="40" as="geometry">
            <mxRectangle x="1230" y="822" width="240" height="136.5" as="alternateBounds" />
          </mxGeometry>
        </mxCell>
        <mxCell id="PSWR5xE6oD8wzBKl0Q2b-67" value="" style="edgeStyle=orthogonalEdgeStyle;rounded=0;orthogonalLoop=1;jettySize=auto;html=1;entryX=0;entryY=0.5;entryDx=0;entryDy=0;" edge="1" parent="1" source="PSWR5xE6oD8wzBKl0Q2b-58" target="PSWR5xE6oD8wzBKl0Q2b-15">
          <mxGeometry relative="1" as="geometry">
            <mxPoint x="697.5" y="605" as="targetPoint" />
          </mxGeometry>
        </mxCell>
        <mxCell id="PSWR5xE6oD8wzBKl0Q2b-58" value="User" style="verticalLabelPosition=bottom;html=1;verticalAlign=top;align=center;strokeColor=none;fillColor=#00BEF2;shape=mxgraph.azure.user;" vertex="1" parent="1">
          <mxGeometry x="570" y="600" width="47.5" height="50" as="geometry" />
        </mxCell>
        <mxCell id="PSWR5xE6oD8wzBKl0Q2b-60" value="GDS" style="image;aspect=fixed;html=1;points=[];align=center;fontSize=12;image=img/lib/azure2/databases/Data_Factory.svg;" vertex="1" parent="1">
          <mxGeometry x="580" y="730" width="60" height="60" as="geometry" />
        </mxCell>
        <mxCell id="PSWR5xE6oD8wzBKl0Q2b-61" value="Travel Agencies" style="image;sketch=0;aspect=fixed;html=1;points=[];align=center;fontSize=12;image=img/lib/mscae/Data_Factory.svg;" vertex="1" parent="1">
          <mxGeometry x="580" y="833.5" width="56.5" height="56.5" as="geometry" />
        </mxCell>
        <mxCell id="PSWR5xE6oD8wzBKl0Q2b-68" value="Tracker" style="outlineConnect=0;dashed=0;verticalLabelPosition=bottom;verticalAlign=top;align=center;html=1;shape=mxgraph.aws3.worker;fillColor=#D9A741;gradientColor=none;" vertex="1" parent="1">
          <mxGeometry x="1000" y="780" width="50" height="50" as="geometry" />
        </mxCell>
      </root>
    </mxGraphModel>
  </diagram>
</mxfile>
